<svg width="61" height="28" viewBox="0 0 61 28" fill="none" xmlns="http://www.w3.org/2000/svg">
<rect width="61" height="28" rx="4" fill="#C2D6FF"/>
<path d="M12 9H20V11.23L16.7683 14L20 16.7701V19H12V16.7701L15.2317 14L12 11.23V9ZM18.1483 11.5L19 10.77V10H13V10.77L13.8516 11.5H18.1483ZM16 14.6585L13 17.2299V18H13.5L16 16.5L18.5 18H19V17.2299L16 14.6585Z" fill="#0A0D14"/>
<path d="M31.792 10.6C32.68 10.6 33.364 10.792 33.844 11.176C34.324 11.56 34.576 12.1 34.576 12.772C34.576 13.276 34.444 13.684 34.192 14.008C33.928 14.332 33.556 14.56 33.076 14.68C34.3 14.92 34.924 15.58 34.924 16.684C34.924 17.404 34.66 17.98 34.132 18.388C33.604 18.796 32.86 19 31.876 19H28.816V10.6H31.792ZM29.86 14.248H31.84C32.368 14.248 32.788 14.128 33.088 13.888C33.376 13.648 33.532 13.324 33.532 12.892C33.532 12.472 33.376 12.148 33.088 11.908C32.8 11.668 32.38 11.548 31.84 11.548H29.86V14.248ZM29.86 18.052H31.876C32.512 18.052 33.004 17.932 33.34 17.68C33.676 17.44 33.856 17.092 33.856 16.648C33.856 16.18 33.676 15.82 33.34 15.568C32.992 15.316 32.5 15.184 31.876 15.184H29.86V18.052ZM36.3526 14.296C36.5926 13.828 36.9406 13.468 37.3846 13.204C37.8166 12.94 38.3206 12.808 38.8966 12.808C39.4486 12.808 39.9526 12.928 40.3846 13.156C40.8166 13.396 41.1526 13.732 41.4046 14.164C41.6446 14.608 41.7766 15.124 41.8006 15.712C41.8006 15.808 41.7886 15.94 41.7766 16.132H37.0246V16.216C37.0366 16.816 37.2166 17.296 37.5766 17.656C37.9246 18.016 38.3806 18.196 38.9566 18.196C39.3886 18.196 39.7606 18.088 40.0726 17.872C40.3846 17.656 40.5886 17.344 40.6966 16.948H41.6926C41.5726 17.572 41.2726 18.088 40.7926 18.484C40.3126 18.88 39.7246 19.072 39.0286 19.072C38.4166 19.072 37.8886 18.952 37.4326 18.688C36.9766 18.424 36.6166 18.064 36.3646 17.584C36.1126 17.104 35.9926 16.564 35.9926 15.94C35.9926 15.316 36.1126 14.776 36.3526 14.296ZM40.7806 15.316C40.7326 14.8 40.5286 14.392 40.1926 14.104C39.8566 13.816 39.4246 13.672 38.9086 13.672C38.4406 13.672 38.0326 13.828 37.6846 14.128C37.3246 14.44 37.1326 14.836 37.0846 15.316H40.7806ZM43.3211 13.78H42.2171V12.88H43.3211V11.164H44.3051V12.88H45.8531V13.78H44.3051V17.392C44.3051 17.656 44.3531 17.836 44.4491 17.944C44.5451 18.052 44.7251 18.1 44.9771 18.1H46.0451V19H44.9171C44.3411 19 43.9211 18.88 43.6811 18.616C43.4411 18.364 43.3211 17.956 43.3211 17.404V13.78ZM52.4354 18.1V19H51.8954C51.4994 19 51.2234 18.928 51.0554 18.76C50.8874 18.604 50.7914 18.364 50.7914 18.052C50.3114 18.736 49.6274 19.072 48.7394 19.072C48.0554 19.072 47.5034 18.916 47.0954 18.592C46.6874 18.28 46.4834 17.836 46.4834 17.284C46.4834 16.672 46.6874 16.204 47.1074 15.868C47.5274 15.544 48.1394 15.376 48.9434 15.376H50.7434V14.956C50.7434 14.56 50.5994 14.248 50.3354 14.02C50.0714 13.804 49.6994 13.684 49.2194 13.684C48.7874 13.684 48.4394 13.78 48.1634 13.972C47.8874 14.164 47.7194 14.404 47.6594 14.716H46.6754C46.7474 14.116 47.0114 13.648 47.4674 13.312C47.9234 12.976 48.5234 12.808 49.2674 12.808C50.0474 12.808 50.6474 13 51.0794 13.384C51.5114 13.768 51.7274 14.308 51.7274 15.016V17.656C51.7274 17.956 51.8594 18.1 52.1354 18.1H52.4354ZM50.7434 16.204H48.8474C47.9354 16.204 47.4794 16.552 47.4794 17.224C47.4794 17.536 47.5994 17.776 47.8394 17.956C48.0794 18.148 48.4034 18.232 48.8114 18.232C49.4114 18.232 49.8794 18.076 50.2274 17.764C50.5634 17.452 50.7434 17.032 50.7434 16.504V16.204Z" fill="#0A0D14"/>
</svg>
