<svg width="108" height="111" viewBox="0 0 108 111" fill="none" xmlns="http://www.w3.org/2000/svg">
<rect y="2" width="108" height="108" rx="54" fill="#F6F8FA"/>
<path d="M64.7942 23.551L22.8606 38.6494C20.7638 39.4043 19.676 41.7162 20.431 43.813L29.5934 69.2605C30.3484 71.3573 32.6602 72.4451 34.7571 71.6901L76.6906 56.5918C78.7874 55.8368 79.8752 53.525 79.1203 51.4281L69.9578 25.9807C69.2029 23.8838 66.891 22.7961 64.7942 23.551Z" fill="#CDD0D5" stroke="#868C98" stroke-linecap="round" stroke-linejoin="round"/>
<path d="M70.8657 28.5024L21.3389 46.3347L23.7871 53.1344L73.314 35.302L70.8657 28.5024Z" fill="white" stroke="#868C98" stroke-linecap="round" stroke-linejoin="round"/>
<path d="M83.6644 41.4202H39.0956C36.8669 41.4202 35.0603 43.2268 35.0603 45.4554V72.5021C35.0603 74.7307 36.8669 76.5373 39.0956 76.5373H83.6644C85.893 76.5373 87.6997 74.7307 87.6997 72.5021V45.4554C87.6997 43.2268 85.893 41.4202 83.6644 41.4202Z" fill="white" stroke="#868C98" stroke-linecap="round" stroke-linejoin="round"/>
<path d="M80.5374 54.6318H72.2663C71.3406 54.6318 70.5901 55.3823 70.5901 56.3081V61.3704C70.5901 62.2961 71.3406 63.0466 72.2663 63.0466H80.5374C81.4632 63.0466 82.2137 62.2961 82.2137 61.3704V56.3081C82.2137 55.3823 81.4632 54.6318 80.5374 54.6318Z" fill="#E2E4E9" stroke="#868C98" stroke-linecap="round" stroke-linejoin="round"/>
<path d="M70.5901 57.3971H73.8359V56.4303" stroke="#868C98" stroke-linecap="round" stroke-linejoin="round"/>
<path d="M70.5901 60.2815H73.8359V61.2483" stroke="#868C98" stroke-linecap="round" stroke-linejoin="round"/>
<path d="M82.2139 57.2556H79.021" stroke="#868C98" stroke-linecap="round" stroke-linejoin="round"/>
<path d="M82.2138 59.2518H76.6182" stroke="#868C98" stroke-linecap="round" stroke-linejoin="round"/>
<path d="M82.2139 61.2484H79.021" stroke="#868C98" stroke-linecap="round" stroke-linejoin="round"/>
<path d="M51.4959 67.6047H38.688V70.2603H51.4959V67.6047Z" fill="#E2E4E9"/>
<path d="M48.7203 61.2485H38.688V63.9041H48.7203V61.2485Z" fill="#CDD0D5"/>
<path d="M65.2638 67.6047H54.272V70.2603H65.2638V67.6047Z" fill="#E2E4E9"/>
<path d="M68.7921 64.5101H46.8872C45.5642 64.5101 44.4917 65.5826 44.4917 66.9056V86.1826C44.4917 87.5055 45.5642 88.578 46.8872 88.578H68.7921C70.1151 88.578 71.1876 87.5055 71.1876 86.1826V66.9056C71.1876 65.5826 70.1151 64.5101 68.7921 64.5101Z" fill="#E2E4E9" stroke="#868C98" stroke-linecap="round" stroke-linejoin="round"/>
<path d="M48.7346 70.6832L53.2275 75.1708L48.7346 70.6832Z" fill="#E2E4E9"/>
<path d="M48.7346 70.6832L53.2275 75.1708" stroke="#868C98" stroke-linecap="round" stroke-linejoin="round"/>
<path d="M53.2251 70.6805L48.7375 75.1734L53.2251 70.6805Z" fill="#E2E4E9"/>
<path d="M53.2251 70.6805L48.7375 75.1734" stroke="#868C98" stroke-linecap="round" stroke-linejoin="round"/>
<path d="M62.4514 70.6753L66.9442 75.1628L62.4514 70.6753Z" fill="#E2E4E9"/>
<path d="M62.4514 70.6753L66.9442 75.1628" stroke="#868C98" stroke-linecap="round" stroke-linejoin="round"/>
<path d="M66.9419 70.6726L62.4543 75.1654L66.9419 70.6726Z" fill="#E2E4E9"/>
<path d="M66.9419 70.6726L62.4543 75.1654" stroke="#868C98" stroke-linecap="round" stroke-linejoin="round"/>
<path d="M51.5413 79.7878L63.1836 79.781L51.5413 79.7878Z" fill="#E2E4E9"/>
<path d="M51.5413 79.7878L63.1836 79.781" stroke="#868C98" stroke-linecap="round" stroke-linejoin="round"/>
<path d="M59.418 79.788H62.8263V81.6898C62.8263 82.6303 62.0627 83.394 61.1221 83.394C60.1816 83.394 59.418 82.6303 59.418 81.6898L59.418 79.788Z" fill="#E2E4E9" stroke="#868C98" stroke-linecap="round" stroke-linejoin="round"/>
<path d="M26.4158 1.10432C26.4158 1.10432 30.336 5.70333 25.7661 9.6257C30.3361 5.70325 34.2874 10.2754 34.2874 10.2754C34.2874 10.2754 30.3672 5.67642 34.9373 1.75397C30.3672 5.67642 26.4158 1.10432 26.4158 1.10432Z" fill="white" stroke="#868C98" stroke-linecap="round" stroke-linejoin="round"/>
<path d="M69.5696 103.744C69.5696 103.744 75.5936 104.224 75.1357 110.229C75.5936 104.224 81.6206 104.663 81.6206 104.663C81.6206 104.663 75.5966 104.183 76.0545 98.1779C75.5966 104.183 69.5696 103.744 69.5696 103.744Z" fill="white" stroke="#868C98" stroke-linecap="round" stroke-linejoin="round"/>
</svg>
