<svg width="17" height="18" viewBox="0 0 17 18" fill="none" xmlns="http://www.w3.org/2000/svg">
<path d="M4.00039 3.6V0.9C4.00039 0.661305 4.09521 0.432387 4.26399 0.263604C4.43278 0.0948211 4.6617 0 4.90039 0H15.7004C15.9391 0 16.168 0.0948211 16.3368 0.263604C16.5056 0.432387 16.6004 0.661305 16.6004 0.9V13.5C16.6004 13.7387 16.5056 13.9676 16.3368 14.1364C16.168 14.3052 15.9391 14.4 15.7004 14.4H13.0004V17.1C13.0004 17.5968 12.5954 18 12.0941 18H1.30669C1.188 18.0007 1.07035 17.978 0.960481 17.9331C0.850613 17.8882 0.750701 17.822 0.666483 17.7384C0.582266 17.6547 0.515404 17.5553 0.469739 17.4457C0.424075 17.3362 0.400507 17.2187 0.400391 17.1L0.403091 4.5C0.403091 4.0032 0.808091 3.6 1.30939 3.6H4.00039ZM2.20309 5.4L2.20039 16.2H11.2004V5.4H2.20309ZM5.80039 3.6H13.0004V12.6H14.8004V1.8H5.80039V3.6Z" fill="#0A0D14"/>
</svg>
