<svg width="101" height="42" viewBox="0 0 101 42" fill="none" xmlns="http://www.w3.org/2000/svg">
<circle cx="16" cy="21" r="16" fill="#FB3766" fill-opacity="0.1"/>
<path d="M21.0335 22.2917C20.6835 22.6333 20.4835 23.125 20.5335 23.65C20.6085 24.55 21.4335 25.2083 22.3335 25.2083H23.9168V26.2C23.9168 27.925 22.5085 29.3333 20.7835 29.3333H12.3585C12.6168 29.1167 12.8418 28.85 13.0168 28.55C13.3252 28.05 13.5002 27.4583 13.5002 26.8333C13.5002 24.9917 12.0085 23.5 10.1668 23.5C9.3835 23.5 8.6585 23.775 8.0835 24.2333V20.5917C8.0835 18.8667 9.49183 17.4583 11.2168 17.4583H20.7835C22.5085 17.4583 23.9168 18.8667 23.9168 20.5917V21.7917H22.2335C21.7668 21.7917 21.3418 21.975 21.0335 22.2917Z" stroke="#FB3766" stroke-width="1.5" stroke-linecap="round" stroke-linejoin="round"/>
<path d="M8.0835 21.3417V17.5334C8.0835 16.5417 8.69183 15.6583 9.61683 15.3083L16.2335 12.8083C17.2668 12.4167 18.3752 13.1834 18.3752 14.2917V17.4583" stroke="#FB3766" stroke-width="1.5" stroke-linecap="round" stroke-linejoin="round"/>
<path d="M24.7992 22.6418V24.3585C24.7992 24.8168 24.4325 25.1918 23.9658 25.2085H22.3325C21.4325 25.2085 20.6075 24.5501 20.5325 23.6501C20.4825 23.1251 20.6825 22.6335 21.0325 22.2918C21.3408 21.9751 21.7658 21.7918 22.2325 21.7918H23.9658C24.4325 21.8085 24.7992 22.1835 24.7992 22.6418Z" stroke="#FB3766" stroke-width="1.5" stroke-linecap="round" stroke-linejoin="round"/>
<path d="M11.8335 21H17.6668" stroke="#FB3766" stroke-width="1.5" stroke-linecap="round" stroke-linejoin="round"/>
<path d="M13.5002 26.8333C13.5002 27.4583 13.3252 28.05 13.0168 28.55C12.8418 28.85 12.6168 29.1167 12.3585 29.3333C11.7752 29.8583 11.0085 30.1667 10.1668 30.1667C8.95016 30.1667 7.89183 29.5167 7.31683 28.55C7.0085 28.05 6.8335 27.4583 6.8335 26.8333C6.8335 25.7833 7.31683 24.8417 8.0835 24.2333C8.6585 23.775 9.3835 23.5 10.1668 23.5C12.0085 23.5 13.5002 24.9917 13.5002 26.8333Z" stroke="#FB3766" stroke-width="1.5" stroke-miterlimit="10" stroke-linecap="round" stroke-linejoin="round"/>
<path d="M11.0587 27.7L9.29199 25.9417" stroke="#FB3766" stroke-width="1.5" stroke-miterlimit="10" stroke-linecap="round" stroke-linejoin="round"/>
<path d="M11.0421 25.9667L9.27539 27.725" stroke="#FB3766" stroke-width="1.5" stroke-miterlimit="10" stroke-linecap="round" stroke-linejoin="round"/>
<path d="M38.768 17.6H41.444C42.296 17.6 43.04 17.78 43.688 18.128C44.324 18.488 44.816 18.98 45.164 19.604C45.5 20.24 45.68 20.972 45.68 21.8C45.68 22.628 45.5 23.36 45.164 23.996C44.816 24.632 44.324 25.124 43.688 25.472C43.04 25.832 42.296 26 41.444 26H38.768V17.6ZM41.444 24.8C42.344 24.8 43.04 24.536 43.532 23.996C44.012 23.456 44.264 22.724 44.264 21.8C44.264 20.888 44.012 20.156 43.532 19.616C43.04 19.076 42.344 18.8 41.444 18.8H40.148V24.8H41.444ZM48.0291 17.624C48.1731 17.768 48.2571 17.96 48.2571 18.176C48.2571 18.404 48.1731 18.596 48.0291 18.74C47.8731 18.884 47.6811 18.956 47.4651 18.956C47.2371 18.956 47.0451 18.884 46.9011 18.74C46.7451 18.596 46.6731 18.404 46.6731 18.176C46.6731 17.96 46.7451 17.768 46.9011 17.624C47.0451 17.48 47.2371 17.396 47.4651 17.396C47.6811 17.396 47.8731 17.48 48.0291 17.624ZM46.8171 19.856H48.1131V26H46.8171V19.856ZM50.4755 23.972C50.4995 24.296 50.6435 24.56 50.9195 24.764C51.1955 24.968 51.5555 25.064 51.9995 25.064C52.3835 25.064 52.7075 24.992 52.9475 24.848C53.1875 24.704 53.3195 24.5 53.3195 24.248C53.3195 24.044 53.2595 23.888 53.1515 23.78C53.0315 23.684 52.8875 23.612 52.6955 23.564C52.5035 23.516 52.2155 23.468 51.8315 23.42C51.2915 23.36 50.8475 23.276 50.4995 23.168C50.1515 23.06 49.8755 22.892 49.6595 22.652C49.4435 22.412 49.3475 22.1 49.3475 21.692C49.3475 21.32 49.4435 20.984 49.6595 20.696C49.8755 20.408 50.1635 20.18 50.5355 20.012C50.9075 19.856 51.3275 19.772 51.8075 19.772C52.5755 19.772 53.2115 19.952 53.6915 20.288C54.1715 20.636 54.4355 21.116 54.4835 21.74H53.2235C53.1875 21.464 53.0435 21.236 52.8035 21.056C52.5515 20.876 52.2395 20.78 51.8675 20.78C51.4835 20.78 51.1835 20.852 50.9555 20.996C50.7155 21.14 50.6075 21.344 50.6075 21.584C50.6075 21.776 50.6555 21.908 50.7755 22.004C50.8955 22.1 51.0395 22.16 51.2195 22.196C51.3875 22.232 51.6755 22.268 52.0715 22.316C52.5995 22.376 53.0435 22.46 53.4035 22.58C53.7635 22.7 54.0515 22.88 54.2675 23.132C54.4835 23.384 54.5915 23.72 54.5915 24.152C54.5915 24.536 54.4715 24.884 54.2555 25.172C54.0275 25.46 53.7155 25.688 53.3315 25.844C52.9355 26 52.4915 26.072 52.0115 26.072C51.1835 26.072 50.5115 25.892 50.0075 25.52C49.5035 25.148 49.2395 24.632 49.2275 23.972H50.4755ZM60.4427 25.472C59.9387 25.88 59.3027 26.072 58.5347 26.072C57.9227 26.072 57.3827 25.952 56.9267 25.688C56.4587 25.424 56.0987 25.052 55.8467 24.572C55.5947 24.092 55.4747 23.54 55.4747 22.916C55.4747 22.292 55.5947 21.752 55.8587 21.272C56.1107 20.804 56.4707 20.444 56.9387 20.18C57.4067 19.916 57.9467 19.784 58.5707 19.784C59.3387 19.784 59.9627 19.988 60.4547 20.396C60.9347 20.804 61.2467 21.344 61.3667 22.04H60.0347C59.9387 21.692 59.7707 21.416 59.5067 21.2C59.2427 20.996 58.9187 20.888 58.5347 20.888C58.0067 20.888 57.5867 21.08 57.2747 21.452C56.9627 21.836 56.8067 22.316 56.8067 22.916C56.8067 23.528 56.9627 24.02 57.2747 24.404C57.5867 24.788 58.0067 24.968 58.5347 24.968C58.9307 24.968 59.2667 24.872 59.5307 24.656C59.7947 24.44 59.9627 24.152 60.0467 23.792H61.3667C61.2467 24.512 60.9347 25.064 60.4427 25.472ZM63.6204 25.688C63.1404 25.424 62.7804 25.064 62.5164 24.584C62.2524 24.104 62.1324 23.552 62.1324 22.928C62.1324 22.316 62.2524 21.776 62.5164 21.296C62.7804 20.816 63.1404 20.444 63.6204 20.18C64.1004 19.916 64.6404 19.784 65.2644 19.784C65.8764 19.784 66.4164 19.916 66.8964 20.18C67.3764 20.444 67.7364 20.816 68.0004 21.296C68.2644 21.776 68.3964 22.316 68.3964 22.928C68.3964 23.552 68.2644 24.104 68.0004 24.584C67.7364 25.064 67.3764 25.424 66.8964 25.688C66.4164 25.952 65.8764 26.072 65.2644 26.072C64.6404 26.072 64.1004 25.952 63.6204 25.688ZM66.5724 24.404C66.9084 24.02 67.0764 23.528 67.0764 22.928C67.0764 22.328 66.9084 21.848 66.5724 21.464C66.2364 21.08 65.8044 20.888 65.2644 20.888C64.7124 20.888 64.2804 21.08 63.9564 21.464C63.6204 21.848 63.4644 22.328 63.4644 22.928C63.4644 23.528 63.6204 24.02 63.9564 24.404C64.2804 24.788 64.7124 24.968 65.2644 24.968C65.8044 24.968 66.2364 24.788 66.5724 24.404ZM74.5145 20.456C74.9705 20.912 75.2105 21.632 75.2105 22.616V26H73.9025V22.688C73.9025 22.112 73.7705 21.668 73.5305 21.356C73.2785 21.056 72.9185 20.9 72.4385 20.9C71.9225 20.9 71.5145 21.08 71.2265 21.44C70.9385 21.8 70.7945 22.28 70.7945 22.904V26H69.4985V19.856H70.6265L70.7705 20.66C71.2265 20.084 71.8865 19.784 72.7385 19.784C73.4585 19.784 74.0585 20.012 74.5145 20.456ZM81.4651 20.456C81.9211 20.912 82.1611 21.632 82.1611 22.616V26H80.8531V22.688C80.8531 22.112 80.7211 21.668 80.4811 21.356C80.2291 21.056 79.8691 20.9 79.3891 20.9C78.8731 20.9 78.4651 21.08 78.1771 21.44C77.8891 21.8 77.7451 22.28 77.7451 22.904V26H76.4491V19.856H77.5771L77.7211 20.66C78.1771 20.084 78.8371 19.784 79.6891 19.784C80.4091 19.784 81.0091 20.012 81.4651 20.456ZM83.5437 21.284C83.7957 20.804 84.1437 20.444 84.5997 20.18C85.0557 19.916 85.5717 19.784 86.1597 19.784C86.7477 19.784 87.2637 19.904 87.7197 20.144C88.1757 20.384 88.5237 20.732 88.7877 21.164C89.0517 21.608 89.1837 22.124 89.1957 22.712C89.1957 22.88 89.1837 23.036 89.1597 23.204H84.5277V23.276C84.5517 23.816 84.7197 24.236 85.0317 24.548C85.3317 24.86 85.7397 25.016 86.2437 25.016C86.6397 25.016 86.9757 24.932 87.2517 24.74C87.5157 24.548 87.6957 24.284 87.7917 23.936H89.0877C88.9677 24.56 88.6677 25.076 88.1757 25.472C87.6837 25.88 87.0717 26.072 86.3397 26.072C85.6917 26.072 85.1397 25.952 84.6597 25.688C84.1797 25.424 83.8197 25.064 83.5557 24.584C83.2917 24.116 83.1717 23.564 83.1717 22.94C83.1717 22.316 83.2917 21.764 83.5437 21.284ZM87.8757 22.256C87.8157 21.812 87.6357 21.464 87.3357 21.212C87.0357 20.96 86.6637 20.828 86.2077 20.828C85.7757 20.828 85.4157 20.96 85.1037 21.224C84.7917 21.488 84.6237 21.824 84.5757 22.256H87.8757ZM95.0435 25.472C94.5395 25.88 93.9035 26.072 93.1355 26.072C92.5235 26.072 91.9835 25.952 91.5275 25.688C91.0595 25.424 90.6995 25.052 90.4475 24.572C90.1955 24.092 90.0755 23.54 90.0755 22.916C90.0755 22.292 90.1955 21.752 90.4595 21.272C90.7115 20.804 91.0715 20.444 91.5395 20.18C92.0075 19.916 92.5475 19.784 93.1715 19.784C93.9395 19.784 94.5635 19.988 95.0555 20.396C95.5355 20.804 95.8475 21.344 95.9675 22.04H94.6355C94.5395 21.692 94.3715 21.416 94.1075 21.2C93.8435 20.996 93.5195 20.888 93.1355 20.888C92.6075 20.888 92.1875 21.08 91.8755 21.452C91.5635 21.836 91.4075 22.316 91.4075 22.916C91.4075 23.528 91.5635 24.02 91.8755 24.404C92.1875 24.788 92.6075 24.968 93.1355 24.968C93.5315 24.968 93.8675 24.872 94.1315 24.656C94.3955 24.44 94.5635 24.152 94.6475 23.792H95.9675C95.8475 24.512 95.5355 25.064 95.0435 25.472ZM97.4626 20.996H96.3946V19.856H97.4626V18.14H98.7706V19.856H100.247V20.996H98.7706V24.2C98.7706 24.44 98.8186 24.62 98.9146 24.716C99.0106 24.812 99.1666 24.86 99.4066 24.86H100.391V26H99.1426C98.5546 26 98.1226 25.868 97.8586 25.592C97.5946 25.328 97.4626 24.908 97.4626 24.332V20.996Z" fill="#FB3766"/>
</svg>
