<svg width="100" height="100" viewBox="0 0 100 100" fill="none" xmlns="http://www.w3.org/2000/svg">
<path d="M50 6.25C25.8281 6.25 6.25 25.8281 6.25 50C6.25 69.3594 18.7734 85.7109 36.1641 91.5078C38.3516 91.8906 39.1719 90.5781 39.1719 89.4297C39.1719 88.3906 39.1172 84.9453 39.1172 81.2812C28.125 83.3047 25.2812 78.6016 24.4062 76.1406C23.9141 74.8828 21.7812 71 19.9219 69.9609C18.3906 69.1406 16.2031 67.1172 19.8672 67.0625C23.3125 67.0078 25.7734 70.2344 26.5938 71.5469C30.5312 78.1641 36.8203 76.3047 39.3359 75.1562C39.7188 72.3125 40.8672 70.3984 42.125 69.3047C32.3906 68.2109 22.2188 64.4375 22.2188 47.7031C22.2188 42.9453 23.9141 39.0078 26.7031 35.9453C26.2656 34.8516 24.7344 30.3672 27.1406 24.3516C27.1406 24.3516 30.8047 23.2031 39.1719 28.8359C42.6719 27.8516 46.3906 27.3594 50.1094 27.3594C53.8281 27.3594 57.5469 27.8516 61.0469 28.8359C69.4141 23.1484 73.0781 24.3516 73.0781 24.3516C75.4844 30.3672 73.9531 34.8516 73.5156 35.9453C76.3047 39.0078 78 42.8906 78 47.7031C78 64.4922 67.7734 68.2109 58.0391 69.3047C59.625 70.6719 60.9922 73.2969 60.9922 77.3984C60.9922 83.25 60.9375 87.9531 60.9375 89.4297C60.9375 90.5781 61.7578 91.9453 63.9453 91.5078C72.6305 88.5758 80.1775 82.9939 85.5241 75.5479C90.8707 68.1019 93.7477 59.1667 93.75 50C93.75 25.8281 74.1719 6.25 50 6.25Z" fill="black"/>
</svg>
