<svg width="25" height="25" viewBox="0 0 25 25" fill="none" xmlns="http://www.w3.org/2000/svg">
<path d="M12.6401 21.5122C7.66944 21.5122 3.64014 17.4829 3.64014 12.5122C3.64014 7.54151 7.66944 3.51221 12.6401 3.51221C17.6108 3.51221 21.6401 7.54151 21.6401 12.5122C21.6401 17.4829 17.6108 21.5122 12.6401 21.5122ZM12.6401 19.7122C14.5497 19.7122 16.381 18.9536 17.7313 17.6034C19.0816 16.2531 19.8401 14.4218 19.8401 12.5122C19.8401 10.6026 19.0816 8.7713 17.7313 7.42104C16.381 6.07078 14.5497 5.31221 12.6401 5.31221C10.7306 5.31221 8.89923 6.07078 7.54897 7.42104C6.19871 8.7713 5.44014 10.6026 5.44014 12.5122C5.44014 14.4218 6.19871 16.2531 7.54897 17.6034C8.89923 18.9536 10.7306 19.7122 12.6401 19.7122ZM11.7401 8.01221H13.5401V9.81221H11.7401V8.01221ZM11.7401 11.6122H13.5401V17.0122H11.7401V11.6122Z" fill="#6E330C"/>
</svg>
