<svg width="49" height="48" viewBox="0 0 49 48" fill="none" xmlns="http://www.w3.org/2000/svg">
<rect x="0.5" width="48" height="48" rx="10" fill="#0052FF" fill-opacity="0.1"/>
<path d="M26.2998 26.0269V27.9079C25.4852 27.6199 24.6135 27.5316 23.7577 27.6503C22.9019 27.769 22.0871 28.0914 21.3817 28.5903C20.6763 29.0892 20.1009 29.75 19.7039 30.5174C19.3068 31.2847 19.0996 32.1361 19.0998 33.0001L17.2998 32.9992C17.2995 31.9002 17.5508 30.8157 18.0345 29.8289C18.5181 28.842 19.2212 27.9789 20.09 27.3058C20.9588 26.6327 21.9701 26.1674 23.0464 25.9456C24.1228 25.7237 25.2357 25.7512 26.2998 26.026V26.0269ZM24.4998 24.9001C21.5163 24.9001 19.0998 22.4836 19.0998 19.5001C19.0998 16.5166 21.5163 14.1001 24.4998 14.1001C27.4833 14.1001 29.8998 16.5166 29.8998 19.5001C29.8998 22.4836 27.4833 24.9001 24.4998 24.9001ZM24.4998 23.1001C26.4888 23.1001 28.0998 21.4891 28.0998 19.5001C28.0998 17.5111 26.4888 15.9001 24.4998 15.9001C22.5108 15.9001 20.8998 17.5111 20.8998 19.5001C20.8998 21.4891 22.5108 23.1001 24.4998 23.1001ZM29.8998 28.5001V25.8001H31.6998V28.5001H34.3998V30.3001H31.6998V33.0001H29.8998V30.3001H27.1998V28.5001H29.8998Z" fill="#375DFB"/>
</svg>
