<svg width="48" height="48" viewBox="0 0 48 48" fill="none" xmlns="http://www.w3.org/2000/svg">
<rect width="48" height="48" rx="10" fill="#905CFB" fill-opacity="0.1"/>
<path d="M29.7278 27.1822L28.4552 25.9078L29.7278 24.6352C30.1487 24.218 30.483 23.7218 30.7116 23.1751C30.9402 22.6283 31.0585 22.0418 31.0598 21.4492C31.0611 20.8566 30.9453 20.2696 30.7192 19.7218C30.493 19.1741 30.1608 18.6764 29.7418 18.2574C29.3228 17.8383 28.8251 17.5062 28.2773 17.28C27.7296 17.0538 27.1426 16.938 26.55 16.9393C25.9574 16.9406 25.3708 17.059 24.8241 17.2876C24.2773 17.5161 23.7811 17.8505 23.3639 18.2713L22.0913 19.5448L20.8178 18.2722L22.0922 16.9996C23.2738 15.8181 24.8763 15.1543 26.5472 15.1543C28.2182 15.1543 29.8207 15.8181 31.0022 16.9996C32.1838 18.1812 32.8476 19.7837 32.8476 21.4546C32.8476 23.1256 32.1838 24.7281 31.0022 25.9096L29.7287 27.1822H29.7278ZM27.1826 29.7274L25.9091 31C24.7276 32.1816 23.1251 32.8453 21.4541 32.8453C19.7832 32.8453 18.1807 32.1816 16.9991 31C15.8176 29.8185 15.1538 28.216 15.1538 26.545C15.1538 24.8741 15.8176 23.2716 16.9991 22.09L18.2726 20.8174L19.5452 22.0918L18.2726 23.3644C17.8518 23.7816 17.5174 24.2778 17.2889 24.8246C17.0603 25.3713 16.942 25.9578 16.9407 26.5504C16.9394 27.1431 17.0551 27.7301 17.2813 28.2778C17.5075 28.8256 17.8396 29.3232 18.2587 29.7423C18.6777 30.1613 19.1754 30.4935 19.7231 30.7196C20.2709 30.9458 20.8579 31.0616 21.4505 31.0603C22.0431 31.059 22.6296 30.9407 23.1764 30.7121C23.7231 30.4835 24.2193 30.1492 24.6365 29.7283L25.9091 28.4557L27.1826 29.7283V29.7274ZM26.5454 20.1811L27.8189 21.4546L21.455 27.8176L20.1815 26.545L26.5454 20.182V20.1811Z" fill="#905CFB"/>
</svg>
