<svg width="48" height="48" viewBox="0 0 48 48" fill="none" xmlns="http://www.w3.org/2000/svg">
<rect width="48" height="48" rx="10" fill="#1BA27A" fill-opacity="0.1"/>
<path d="M23.9999 14.1001L31.3952 15.7435C31.8065 15.8353 32.0999 16.1998 32.0999 16.6219V25.6102C32.0999 27.4156 31.1972 29.1022 29.6951 30.103L23.9999 33.9001L18.3047 30.103C16.8017 29.1013 15.8999 27.4156 15.8999 25.6111V16.6219C15.8999 16.1998 16.1933 15.8353 16.6046 15.7435L23.9999 14.1001ZM23.9999 15.9442L17.6999 17.3437V25.6102C17.6999 26.8135 18.3011 27.9376 19.3028 28.6054L23.9999 31.7374L28.697 28.6054C29.6987 27.9376 30.2999 26.8144 30.2999 25.6111V17.3437L23.9999 15.9451V15.9442ZM28.0067 20.5999L29.2802 21.8725L23.5526 27.6001L19.7339 23.7814L21.0065 22.5088L23.5517 25.054L28.0067 20.599V20.5999Z" fill="#34A853"/>
</svg>
