<svg width="49" height="48" viewBox="0 0 49 48" fill="none" xmlns="http://www.w3.org/2000/svg">
<rect x="0.5" width="48" height="48" rx="10" fill="#0052FF" fill-opacity="0.1"/>
<path d="M32.6004 20.4V32.0937C32.6012 32.2119 32.5788 32.3291 32.5343 32.4386C32.4898 32.5481 32.4242 32.6478 32.3412 32.7319C32.2583 32.8161 32.1595 32.8831 32.0506 32.9291C31.9418 32.9751 31.8249 32.9992 31.7067 33H17.2941C17.0572 33 16.83 32.906 16.6625 32.7386C16.4949 32.5712 16.4006 32.3441 16.4004 32.1072V15.8928C16.4004 15.4095 16.8045 15 17.3022 15H27.1977L32.6004 20.4ZM30.8004 21.3H26.3004V16.8H18.2004V31.2H30.8004V21.3ZM20.9004 19.5H23.6004V21.3H20.9004V19.5ZM20.9004 23.1H28.1004V24.9H20.9004V23.1ZM20.9004 26.7H28.1004V28.5H20.9004V26.7Z" fill="#375DFB"/>
</svg>
