<svg width="48" height="48" viewBox="0 0 48 48" fill="none" xmlns="http://www.w3.org/2000/svg">
<rect width="48" height="48" rx="10" fill="#0052FF" fill-opacity="0.1"/>
<path d="M24 31.2C25.9096 31.2 27.7409 30.4414 29.0912 29.0912C30.4414 27.7409 31.2 25.9096 31.2 24C31.2 22.0904 30.4414 20.2591 29.0912 18.9088C27.7409 17.5586 25.9096 16.8 24 16.8C22.0904 16.8 20.2591 17.5586 18.9088 18.9088C17.5586 20.2591 16.8 22.0904 16.8 24C16.8 25.9096 17.5586 27.7409 18.9088 29.0912C20.2591 30.4414 22.0904 31.2 24 31.2ZM24 33C19.0293 33 15 28.9707 15 24C15 19.0293 19.0293 15 24 15C28.9707 15 33 19.0293 33 24C33 28.9707 28.9707 33 24 33ZM24 25.8C23.5226 25.8 23.0648 25.6104 22.7272 25.2728C22.3896 24.9352 22.2 24.4774 22.2 24C22.2 23.5226 22.3896 23.0648 22.7272 22.7272C23.0648 22.3896 23.5226 22.2 24 22.2C24.4774 22.2 24.9352 22.3896 25.2728 22.7272C25.6104 23.0648 25.8 23.5226 25.8 24C25.8 24.4774 25.6104 24.9352 25.2728 25.2728C24.9352 25.6104 24.4774 25.8 24 25.8Z" fill="#375DFB"/>
</svg>
