<svg width="16" height="16" viewBox="0 0 16 16" fill="none" xmlns="http://www.w3.org/2000/svg">
<path d="M8 0.699951C8.19891 0.699951 8.38968 0.778969 8.53033 0.919621C8.67098 1.06027 8.75 1.25104 8.75 1.44995V3.69995C8.75 3.89886 8.67098 4.08963 8.53033 4.23028C8.38968 4.37093 8.19891 4.44995 8 4.44995C7.80109 4.44995 7.61032 4.37093 7.46967 4.23028C7.32902 4.08963 7.25 3.89886 7.25 3.69995V1.44995C7.25 1.25104 7.32902 1.06027 7.46967 0.919621C7.61032 0.778969 7.80109 0.699951 8 0.699951ZM8 11.95C8.19891 11.95 8.38968 12.029 8.53033 12.1696C8.67098 12.3103 8.75 12.501 8.75 12.7V14.95C8.75 15.1489 8.67098 15.3396 8.53033 15.4803C8.38968 15.6209 8.19891 15.7 8 15.7C7.80109 15.7 7.61032 15.6209 7.46967 15.4803C7.32902 15.3396 7.25 15.1489 7.25 14.95V12.7C7.25 12.501 7.32902 12.3103 7.46967 12.1696C7.61032 12.029 7.80109 11.95 8 11.95ZM15.5 8.19995C15.5 8.39886 15.421 8.58963 15.2803 8.73028C15.1397 8.87093 14.9489 8.94995 14.75 8.94995H12.5C12.3011 8.94995 12.1103 8.87093 11.9697 8.73028C11.829 8.58963 11.75 8.39886 11.75 8.19995C11.75 8.00104 11.829 7.81027 11.9697 7.66962C12.1103 7.52897 12.3011 7.44995 12.5 7.44995H14.75C14.9489 7.44995 15.1397 7.52897 15.2803 7.66962C15.421 7.81027 15.5 8.00104 15.5 8.19995ZM4.25 8.19995C4.25 8.39886 4.17098 8.58963 4.03033 8.73028C3.88968 8.87093 3.69891 8.94995 3.5 8.94995H1.25C1.05109 8.94995 0.860322 8.87093 0.71967 8.73028C0.579018 8.58963 0.5 8.39886 0.5 8.19995C0.5 8.00104 0.579018 7.81027 0.71967 7.66962C0.860322 7.52897 1.05109 7.44995 1.25 7.44995H3.5C3.69891 7.44995 3.88968 7.52897 4.03033 7.66962C4.17098 7.81027 4.25 8.00104 4.25 8.19995ZM13.3032 13.5032C13.1626 13.6438 12.9719 13.7228 12.773 13.7228C12.5741 13.7228 12.3834 13.6438 12.2428 13.5032L10.652 11.9125C10.5154 11.771 10.4398 11.5815 10.4415 11.3849C10.4432 11.1883 10.5221 11.0001 10.6611 10.8611C10.8002 10.722 10.9883 10.6432 11.1849 10.6414C11.3816 10.6397 11.571 10.7153 11.7125 10.852L13.3032 12.442C13.373 12.5116 13.4283 12.5943 13.466 12.6854C13.5038 12.7764 13.5232 12.874 13.5232 12.9726C13.5232 13.0711 13.5038 13.1687 13.466 13.2598C13.4283 13.3508 13.373 13.4335 13.3032 13.5032ZM5.348 5.54795C5.20735 5.68855 5.01662 5.76754 4.81775 5.76754C4.61888 5.76754 4.42815 5.68855 4.2875 5.54795L2.6975 3.95795C2.55677 3.81732 2.47767 3.62654 2.4776 3.42759C2.47753 3.22864 2.55649 3.03781 2.69712 2.89708C2.83776 2.75635 3.02853 2.67724 3.22748 2.67717C3.42644 2.6771 3.61727 2.75607 3.758 2.8967L5.348 4.48745C5.4886 4.6281 5.56759 4.81883 5.56759 5.0177C5.56759 5.21657 5.4886 5.40731 5.348 5.54795ZM2.6975 13.5032C2.5569 13.3626 2.47791 13.1718 2.47791 12.973C2.47791 12.7741 2.5569 12.5833 2.6975 12.4427L4.28825 10.852C4.35744 10.7803 4.44019 10.7232 4.5317 10.6839C4.6232 10.6446 4.72161 10.6239 4.8212 10.623C4.92078 10.6221 5.01954 10.6411 5.11172 10.6788C5.20389 10.7165 5.28763 10.7722 5.35805 10.8427C5.42847 10.9131 5.48416 10.9968 5.52187 11.089C5.55958 11.1812 5.57855 11.2799 5.57769 11.3795C5.57682 11.4791 5.55613 11.5775 5.51683 11.669C5.47752 11.7605 5.42038 11.8433 5.34875 11.9125L3.75875 13.5032C3.6891 13.5729 3.60638 13.6283 3.51533 13.666C3.42428 13.7037 3.32669 13.7232 3.22812 13.7232C3.12956 13.7232 3.03197 13.7037 2.94092 13.666C2.84987 13.6283 2.76715 13.5729 2.6975 13.5032ZM10.652 5.54795C10.5114 5.40731 10.4324 5.21657 10.4324 5.0177C10.4324 4.81883 10.5114 4.6281 10.652 4.48745L12.242 2.8967C12.3826 2.75597 12.5734 2.67687 12.7724 2.6768C12.9713 2.67673 13.1621 2.7557 13.3029 2.89633C13.4436 3.03696 13.5227 3.22773 13.5228 3.42669C13.5228 3.62564 13.4439 3.81647 13.3032 3.9572L11.7125 5.54795C11.5719 5.68855 11.3811 5.76754 11.1823 5.76754C10.9834 5.76754 10.7926 5.68855 10.652 5.54795Z" fill="#0A0D14"/>
</svg>
