<svg width="32" height="32" viewBox="0 0 32 32" fill="none" xmlns="http://www.w3.org/2000/svg">
<circle cx="16" cy="16" r="16" fill="#F9F9FA"/>
<g clip-path="url(#clip0_76_135)">
<path d="M24.9541 19.8458L23.7464 23.7725L21.3755 23.149L24.9541 19.8458Z" fill="#E4761B" stroke="#E4761B" stroke-width="0.1"/>
<path d="M21.3755 23.149L23.6623 20.1361L24.9541 19.8458L21.3755 23.149Z" fill="#E4761B" stroke="#E4761B" stroke-width="0.1"/>
<path d="M23.1772 16.8853L24.9542 19.8458L23.6623 20.1361L23.1772 16.8853ZM23.1772 16.8853L24.3206 16.1237L24.9542 19.8458L23.1772 16.8853Z" fill="#F6851B" stroke="#F6851B" stroke-width="0.1"/>
<path d="M21.7217 14.6483L25.0083 13.3536L24.8449 14.0628L21.7217 14.6483ZM24.741 14.9148L21.7217 14.6483L24.8449 14.0628L24.741 14.9148Z" fill="#763D16" stroke="#763D16" stroke-width="0.1"/>
<path d="M24.741 14.9148L24.3203 16.1238L21.7217 14.6483L24.741 14.9148ZM25.3993 13.6535L24.8449 14.0628L25.0083 13.3536L25.3993 13.6535ZM24.741 14.9148L24.8449 14.0628L25.2855 14.415L24.741 14.9148Z" fill="#763D16" stroke="#763D16" stroke-width="0.1"/>
<path d="M18.8262 22.1923L19.6478 22.4446L21.3753 23.149L18.8262 22.1923Z" fill="#E2761B" stroke="#E2761B" stroke-width="0.1"/>
<path d="M24.3205 16.1237L24.7412 14.9148L25.1026 15.1813L24.3205 16.1237ZM24.3205 16.1237L20.9102 15.0433L21.7219 14.6483L24.3205 16.1237Z" fill="#763D16" stroke="#763D16" stroke-width="0.1"/>
<path d="M22.5337 10.9405L21.7219 14.6483L20.9102 15.0433L22.5337 10.9405Z" fill="#763D16" stroke="#763D16" stroke-width="0.1"/>
<path d="M25.0083 13.3536L21.7217 14.6483L22.5334 10.9405L25.0083 13.3536Z" fill="#763D16" stroke="#763D16" stroke-width="0.1"/>
<path d="M22.5337 10.9405L25.9638 10.5597L25.0085 13.3536L22.5337 10.9405Z" fill="#763D16" stroke="#763D16" stroke-width="0.1"/>
<path d="M24.3205 16.1237L23.1771 16.8853L20.9102 15.0433L24.3205 16.1237Z" fill="#F6851B" stroke="#F6851B" stroke-width="0.1"/>
<path d="M25.8153 7.88958L25.9638 10.5597L22.5337 10.9405L25.8153 7.88958Z" fill="#763D16" stroke="#763D16" stroke-width="0.1"/>
<path d="M25.815 7.88958L18.9597 12.6825L18.8706 9.4317L25.815 7.88958Z" fill="#E2761B" stroke="#E2761B" stroke-width="0.1"/>
<path d="M13.7725 9.04141L18.8707 9.4317L18.9598 12.6825L13.7725 9.04141Z" fill="#F6851B" stroke="#F6851B" stroke-width="0.1"/>
<path d="M20.9101 15.0433L18.96 12.6825L22.5337 10.9405L20.9101 15.0433Z" fill="#763D16" stroke="#763D16" stroke-width="0.1"/>
<path d="M20.9103 15.0433L23.1773 16.8853L19.9946 17.2232L20.9103 15.0433Z" fill="#E4761B" stroke="#E4761B" stroke-width="0.1"/>
<path d="M19.9945 17.2232L18.96 12.6825L20.9101 15.0433L19.9945 17.2232Z" fill="#E4761B" stroke="#E4761B" stroke-width="0.1"/>
<path d="M22.5336 10.9405L18.96 12.6825L25.8153 7.88958L22.5336 10.9405Z" fill="#763D16" stroke="#763D16" stroke-width="0.1"/>
<path d="M13.817 23.0728L15.4355 24.6959L13.2329 22.7682L13.817 23.0728Z" fill="#C0AD9E" stroke="#C0AD9E" stroke-width="0.1"/>
<path d="M21.3755 23.149L22.1427 20.3455L23.6623 20.1361L21.3755 23.149Z" fill="#CD6116" stroke="#CD6116" stroke-width="0.1"/>
<path d="M7.25391 15.2623L10.0554 12.4303L7.61523 14.9243L7.25391 15.2623Z" fill="#E2761B" stroke="#E2761B" stroke-width="0.1"/>
<path d="M23.662 20.1361L22.1424 20.3455L23.1769 16.8853L23.662 20.1361ZM18.9598 12.6825L16.2325 12.5969L13.7725 9.04141L18.9598 12.6825Z" fill="#F6851B" stroke="#F6851B" stroke-width="0.1"/>
<path d="M23.1772 16.8853L22.1427 20.3455L22.0586 18.6559L23.1772 16.8853Z" fill="#E4751F" stroke="#E4751F" stroke-width="0.1"/>
<path d="M19.9946 17.2232L23.1773 16.8853L22.0587 18.6559L19.9946 17.2232Z" fill="#CD6116" stroke="#CD6116" stroke-width="0.1"/>
<path d="M16.2324 12.5969L18.9597 12.6825L19.9942 17.2232L16.2324 12.5969Z" fill="#F6851B" stroke="#F6851B" stroke-width="0.1"/>
<path d="M16.2327 12.5969L8.87249 6.0476L13.7727 9.04141L16.2327 12.5969ZM13.7677 24.0676L7.37273 25.9714L6.0957 21.2832L13.7677 24.0676Z" fill="#E4761B" stroke="#E4761B" stroke-width="0.1"/>
<path d="M8.2041 16.4331L10.6196 14.6102L12.644 15.0623L8.2041 16.4331Z" fill="#763D16" stroke="#763D16" stroke-width="0.1"/>
<path d="M12.6441 15.0623L10.6196 14.6102L11.7036 10.3075L12.6441 15.0623Z" fill="#763D16" stroke="#763D16" stroke-width="0.1"/>
<path d="M7.61523 14.9243L10.6197 14.6102L8.20425 16.4331L7.61523 14.9243Z" fill="#763D16" stroke="#763D16" stroke-width="0.1"/>
<path d="M22.0587 18.6559L20.8113 18.0514L19.9946 17.2232L22.0587 18.6559Z" fill="#CD6116" stroke="#CD6116" stroke-width="0.1"/>
<path d="M7.61518 14.9243L7.40234 13.8439L10.6197 14.6102L7.61518 14.9243Z" fill="#763D16" stroke="#763D16" stroke-width="0.1"/>
<path d="M20.5537 19.4127L20.8111 18.0514L22.0584 18.6559L20.5537 19.4127Z" fill="#233447" stroke="#233447" stroke-width="0.1"/>
<path d="M22.1426 20.3455L20.5537 19.4127L22.0584 18.6559L22.1426 20.3455Z" fill="#F6851B" stroke="#F6851B" stroke-width="0.1"/>
<path d="M10.6198 14.6102L7.40247 13.8439L7.14014 12.9348L10.6198 14.6102ZM11.7038 10.3075L10.6198 14.6102L7.14014 12.9348L11.7038 10.3075ZM11.7038 10.3075L16.2327 12.5969L12.6442 15.0623L11.7038 10.3075Z" fill="#763D16" stroke="#763D16" stroke-width="0.1"/>
<path d="M12.644 15.0624L16.2326 12.5969L17.8313 17.2946L12.644 15.0624ZM17.8313 17.2946L12.8717 17.1947L12.644 15.0624L17.8313 17.2946Z" fill="#E4761B" stroke="#E4761B" stroke-width="0.1"/>
<path d="M8.2041 16.4331L12.644 15.0624L12.8717 17.1947L8.2041 16.4331ZM19.9943 17.2232L17.8313 17.2946L16.2325 12.5969L19.9943 17.2232Z" fill="#F6851B" stroke="#F6851B" stroke-width="0.1"/>
<path d="M20.8113 18.0514L20.5539 19.4127L19.9946 17.2232L20.8113 18.0514Z" fill="#CD6116" stroke="#CD6116" stroke-width="0.1"/>
<path d="M8.87256 6.0476L16.2328 12.5969L11.7038 10.3075L8.87256 6.0476Z" fill="#763D16" stroke="#763D16" stroke-width="0.1"/>
<path d="M6.0957 21.2832L12.3026 21.0357L13.7677 24.0676L6.0957 21.2832Z" fill="#E4761B" stroke="#E4761B" stroke-width="0.1"/>
<path d="M13.7678 24.0676L12.3027 21.0357L15.3518 20.8929L13.7678 24.0676Z" fill="#CD6116" stroke="#CD6116" stroke-width="0.1"/>
<path d="M20.5538 19.4127L22.1427 20.3456L23.0188 22.3303L20.5538 19.4127ZM12.8719 17.1947L6.0957 21.2832L8.20428 16.4331L12.8719 17.1947ZM12.3026 21.0357L6.0957 21.2832L12.8719 17.1947L12.3026 21.0357ZM19.9945 17.2232L20.4004 18.6416L18.4403 18.7511L19.9945 17.2232ZM18.4403 18.7511L17.8315 17.2946L19.9945 17.2232L18.4403 18.7511Z" fill="#F6851B" stroke="#F6851B" stroke-width="0.1"/>
<path d="M15.4356 24.6959L13.7676 24.0676L19.5686 25.0052L15.4356 24.6959Z" fill="#C0AD9E" stroke="#C0AD9E" stroke-width="0.1"/>
<path d="M8.20425 16.4331L7.25391 15.2623L7.61523 14.9243L8.20425 16.4331Z" fill="#763D16" stroke="#763D16" stroke-width="0.1"/>
<path d="M20.2269 24.3103L19.5686 25.0052L13.7676 24.0676L20.2269 24.3103Z" fill="#D7C1B3" stroke="#D7C1B3" stroke-width="0.1"/>
<path d="M20.5388 22.6064L13.7676 24.0676L15.3515 20.8929L20.5388 22.6064Z" fill="#E4761B" stroke="#E4761B" stroke-width="0.1"/>
<path d="M13.7676 24.0676L20.5388 22.6064L20.2269 24.3103L13.7676 24.0676Z" fill="#D7C1B3" stroke="#D7C1B3" stroke-width="0.1"/>
<path d="M7.14022 12.9348L6.91748 9.27463L11.7038 10.3075L7.14022 12.9348ZM7.61539 14.9243L6.95708 14.2818L7.40255 13.8439L7.61539 14.9243Z" fill="#763D16" stroke="#763D16" stroke-width="0.1"/>
<path d="M16.7227 18.237L17.8314 17.2946L17.673 19.5983L16.7227 18.237Z" fill="#CD6116" stroke="#CD6116" stroke-width="0.1"/>
<path d="M17.8312 17.2946L16.7225 18.237L15.1089 19.0414L17.8312 17.2946Z" fill="#CD6116" stroke="#CD6116" stroke-width="0.1"/>
<path d="M23.0187 22.3303L22.7167 22.1161L20.5537 19.4127L23.0187 22.3303Z" fill="#F6851B" stroke="#F6851B" stroke-width="0.1"/>
<path d="M15.1088 19.0414L12.8716 17.1947L17.8312 17.2946L15.1088 19.0414Z" fill="#CD6116" stroke="#CD6116" stroke-width="0.1"/>
<path d="M17.6729 19.5983L17.8312 17.2946L18.4401 18.7511L17.6729 19.5983Z" fill="#E4751F" stroke="#E4751F" stroke-width="0.1"/>
<path d="M6.73926 13.2965L7.14018 12.9348L7.40252 13.8439L6.73926 13.2965Z" fill="#763D16" stroke="#763D16" stroke-width="0.1"/>
<path d="M17.6728 19.5983L15.1089 19.0414L16.7225 18.237L17.6728 19.5983Z" fill="#233447" stroke="#233447" stroke-width="0.1"/>
<path d="M11.7038 10.3075L6.91748 9.27463L8.87261 6.0476L11.7038 10.3075Z" fill="#763D16" stroke="#763D16" stroke-width="0.1"/>
<path d="M19.5686 25.0052L19.8408 25.7192L15.4355 24.6959L19.5686 25.0052Z" fill="#C0AD9E" stroke="#C0AD9E" stroke-width="0.1"/>
<path d="M15.3514 20.8929L15.1089 19.0414L17.6728 19.5983L15.3514 20.8929Z" fill="#F6851B" stroke="#F6851B" stroke-width="0.1"/>
<path d="M12.8716 17.1947L15.1088 19.0414L15.3514 20.8929L12.8716 17.1947Z" fill="#E4751F" stroke="#E4751F" stroke-width="0.1"/>
<path d="M18.4404 18.7511L20.4005 18.6416L22.7169 22.1161L18.4404 18.7511ZM12.872 17.1947L15.3518 20.8929L12.3027 21.0357L12.872 17.1947Z" fill="#F6851B" stroke="#F6851B" stroke-width="0.1"/>
<path d="M18.4401 18.7511L20.8753 22.316L17.6729 19.5983L18.4401 18.7511Z" fill="#E4751F" stroke="#E4751F" stroke-width="0.1"/>
<path d="M17.6729 19.5983L20.8753 22.316L20.5387 22.6064L17.6729 19.5983Z" fill="#F6851B" stroke="#F6851B" stroke-width="0.1"/>
<path d="M20.5389 22.6064L15.3516 20.8929L17.673 19.5983L20.5389 22.6064ZM22.7167 22.1161L20.8754 22.316L18.4402 18.7511L22.7167 22.1161Z" fill="#F6851B" stroke="#F6851B" stroke-width="0.1"/>
<path d="M23.2019 23.7915L22.41 25.3194L19.8411 25.7192L23.2019 23.7915ZM19.8411 25.7192L19.5688 25.0052L20.2272 24.3103L19.8411 25.7192Z" fill="#C0AD9E" stroke="#C0AD9E" stroke-width="0.1"/>
<path d="M20.2269 24.3103L20.712 24.1247L19.8408 25.7192L20.2269 24.3103ZM19.8408 25.7192L20.712 24.1247L23.2017 23.7915L19.8408 25.7192Z" fill="#C0AD9E" stroke="#C0AD9E" stroke-width="0.1"/>
<path d="M22.717 22.1161L23.3258 22.4731L21.4746 22.6873L22.717 22.1161Z" fill="#131316" stroke="#131316" stroke-width="0.1"/>
<path d="M21.4744 22.6873L20.8755 22.316L22.7168 22.1161L21.4744 22.6873ZM21.2616 22.9681L23.5137 22.7063L23.2019 23.7915L21.2616 22.9681Z" fill="#131316" stroke="#131316" stroke-width="0.1"/>
<path d="M23.2018 23.7915L20.7121 24.1247L21.2615 22.9681L23.2018 23.7915ZM20.7121 24.1247L20.2271 24.3103L20.5389 22.6064L20.7121 24.1247ZM20.5389 22.6064L20.8755 22.316L21.4744 22.6873L20.5389 22.6064ZM23.3256 22.4731L23.5137 22.7063L21.2615 22.9681L23.3256 22.4731Z" fill="#131316" stroke="#131316" stroke-width="0.1"/>
<path d="M21.2617 22.9681L21.4746 22.6873L23.3257 22.4731L21.2617 22.9681ZM20.5391 22.6064L21.2617 22.9681L20.7123 24.1247L20.5391 22.6064Z" fill="#131316" stroke="#131316" stroke-width="0.1"/>
<path d="M21.4746 22.6873L21.2617 22.9681L20.5391 22.6064L21.4746 22.6873Z" fill="#131316" stroke="#131316" stroke-width="0.1"/>
</g>
<defs>
<clipPath id="clip0_76_135">
<rect width="20" height="20" fill="white" transform="translate(6 6)"/>
</clipPath>
</defs>
</svg>
