<svg width="109" height="109" viewBox="0 0 109 109" fill="none" xmlns="http://www.w3.org/2000/svg">
<rect x="0.5" y="1" width="108" height="108" rx="54" fill="#F6F8FA"/>
<path d="M75.5499 31.3916H33.2768C31.0113 31.3916 29.1748 33.2281 29.1748 35.4936V64.4976C29.1748 66.7631 31.0113 68.5997 33.2768 68.5997H75.5499C77.8154 68.5997 79.6519 66.7631 79.6519 64.4976V35.4936C79.6519 33.2281 77.8154 31.3916 75.5499 31.3916Z" fill="white" stroke="#868C98" stroke-linecap="round" stroke-linejoin="round"/>
<path d="M89.8153 82.1587H19.0103C17.2023 82.1587 16.1704 80.4375 17.2555 79.2316L28.8424 66.3545C29.2567 65.894 29.9068 65.623 30.5972 65.623H78.2283C78.9187 65.623 79.5688 65.894 79.9832 66.3545L91.5701 79.2316C92.6551 80.4375 91.6233 82.1587 89.8153 82.1587Z" fill="#F6F8FA" stroke="#868C98" stroke-linecap="round" stroke-linejoin="round"/>
<path d="M75.1811 35.2588H33.6445V61.6585H75.1811V35.2588Z" fill="#E2E4E9" stroke="#868C98" stroke-linecap="round" stroke-linejoin="round"/>
<path d="M75.1816 26.6973V31.353H67.3623V26.6973C67.3623 25.6188 67.797 24.6367 68.5084 23.9309C69.2141 23.2252 70.1908 22.7847 71.2691 22.7847C73.4314 22.7847 75.1816 24.5349 75.1816 26.6973Z" fill="#E2E4E9" stroke="#868C98" stroke-linecap="round" stroke-linejoin="round"/>
<path d="M71.2685 22.7661C70.1902 22.7661 69.2135 23.2067 68.5078 23.9124C67.7964 24.6181 67.3617 25.6003 67.3617 26.6787L67.3617 55.4767H40.917L40.917 26.6787C40.917 24.5164 42.6672 22.7661 44.8238 22.7661H71.2685Z" fill="white" stroke="#868C98" stroke-linecap="round" stroke-linejoin="round"/>
<path d="M83.0824 53.1756C89.8007 53.1756 95.2469 47.7294 95.2469 41.0112C95.2469 34.2929 89.8007 28.8467 83.0824 28.8467C76.3642 28.8467 70.918 34.2929 70.918 41.0112C70.918 47.7294 76.3642 53.1756 83.0824 53.1756Z" fill="#F6F8FA" stroke="#868C98" stroke-linecap="round" stroke-linejoin="round"/>
<path d="M46.1719 34.3887L49.9586 38.1203" stroke="#868C98" stroke-linecap="round" stroke-linejoin="round"/>
<path d="M49.9312 34.3608L46.1996 38.1475" stroke="#868C98" stroke-linecap="round" stroke-linejoin="round"/>
<path d="M57.6553 34.3042L61.442 38.0358" stroke="#868C98" stroke-linecap="round" stroke-linejoin="round"/>
<path d="M61.4146 34.2763L57.683 38.0631" stroke="#868C98" stroke-linecap="round" stroke-linejoin="round"/>
<path d="M48.5732 41.9946L58.3201 41.9232" stroke="#868C98" stroke-linecap="round" stroke-linejoin="round"/>
<path d="M54.3506 41.9526L56.8655 41.9342L56.8765 43.433C56.8813 44.0866 56.3545 44.6212 55.7008 44.626L55.5546 44.627C54.9009 44.6318 54.3664 44.105 54.3616 43.4514L54.3506 41.9526Z" fill="white" stroke="#868C98" stroke-linecap="round" stroke-linejoin="round"/>
<path d="M71.4971 79.541L73.4753 82.221C74.9103 84.165 72.1175 88.6615 67.2346 92.2658C62.3562 95.8667 57.2364 97.2108 55.8014 95.2668L53.8232 92.5868C54.172 93.0593 54.7434 93.3391 55.4755 93.4372C56.3971 93.564 57.576 93.4025 58.8992 92.9802C60.828 92.3704 63.0703 91.2065 65.2598 89.5904C67.4492 87.9743 69.2221 86.1745 70.3775 84.5076C71.171 83.3675 71.6727 82.2885 71.8231 81.3705C71.9449 80.642 71.8459 80.0134 71.4971 79.541Z" fill="#CDD0D5" stroke="#868C98" stroke-linecap="round" stroke-linejoin="round"/>
<path d="M71.4967 79.5411C71.8454 80.0135 71.9445 80.6421 71.8226 81.3705C71.6722 82.2886 71.1705 83.3675 70.377 84.5076C69.2217 86.1745 67.4486 87.9743 65.2593 89.5904C63.07 91.2065 60.8276 92.3704 58.8988 92.9802C57.5755 93.4025 56.3967 93.564 55.4751 93.4372C54.743 93.3391 54.1715 93.0593 53.8228 92.5868C52.3878 90.6428 55.1807 86.1463 60.0591 82.5454C64.942 78.9411 70.0617 77.597 71.4967 79.5411Z" fill="white" stroke="#868C98" stroke-linecap="round" stroke-linejoin="round"/>
<path d="M71.9051 6.5341C71.9051 6.5341 67.5213 5.22814 66.205 9.59256C67.5213 5.2282 63.1465 3.89248 63.1465 3.89248C63.1465 3.89248 67.5303 5.19834 68.8466 0.833984C67.5303 5.19834 71.9051 6.5341 71.9051 6.5341Z" fill="white" stroke="#868C98" stroke-linecap="round" stroke-linejoin="round"/>
<path d="M34.7982 96.4288C34.7982 96.4288 31.0544 100.821 35.4187 104.567C31.0543 100.821 27.2807 105.187 27.2807 105.187C27.2807 105.187 31.0246 100.795 26.6602 97.0492C31.0246 100.795 34.7982 96.4288 34.7982 96.4288Z" fill="white" stroke="#868C98" stroke-linecap="round" stroke-linejoin="round"/>
</svg>
