<svg width="49" height="48" viewBox="0 0 49 48" fill="none" xmlns="http://www.w3.org/2000/svg">
<rect x="0.5" width="48" height="48" rx="10" fill="#EFFAF6"/>
<path d="M27.2003 17.7H29.0003C29.4777 17.7 29.9355 17.8896 30.2731 18.2272C30.6107 18.5648 30.8003 19.0226 30.8003 19.5V26.853C31.4011 27.0653 31.9074 27.4832 32.2298 28.0327C32.5523 28.5823 32.6701 29.2281 32.5623 29.8561C32.4546 30.4841 32.1284 31.0538 31.6413 31.4645C31.1541 31.8752 30.5375 32.1004 29.9003 32.1004C29.2632 32.1004 28.6465 31.8752 28.1594 31.4645C27.6723 31.0538 27.346 30.4841 27.2383 29.8561C27.1306 29.2281 27.2484 28.5823 27.5708 28.0327C27.8932 27.4832 28.3996 27.0653 29.0003 26.853V19.5H27.2003V22.2L23.1503 18.6L27.2003 15V17.7ZM18.2003 21.147C17.5996 20.9347 17.0932 20.5168 16.7708 19.9673C16.4484 19.4177 16.3306 18.7719 16.4383 18.1439C16.546 17.5159 16.8723 16.9462 17.3594 16.5355C17.8465 16.1248 18.4632 15.8996 19.1003 15.8996C19.7375 15.8996 20.3541 16.1248 20.8413 16.5355C21.3284 16.9462 21.6546 17.5159 21.7623 18.1439C21.8701 18.7719 21.7523 19.4177 21.4298 19.9673C21.1074 20.5168 20.6011 20.9347 20.0003 21.147V26.853C20.6011 27.0653 21.1074 27.4832 21.4298 28.0327C21.7523 28.5823 21.8701 29.2281 21.7623 29.8561C21.6546 30.4841 21.3284 31.0538 20.8413 31.4645C20.3541 31.8752 19.7375 32.1004 19.1003 32.1004C18.4632 32.1004 17.8465 31.8752 17.3594 31.4645C16.8723 31.0538 16.546 30.4841 16.4383 29.8561C16.3306 29.2281 16.4484 28.5823 16.7708 28.0327C17.0932 27.4832 17.5996 27.0653 18.2003 26.853V21.147ZM19.1003 19.5C19.339 19.5 19.5679 19.4052 19.7367 19.2364C19.9055 19.0676 20.0003 18.8387 20.0003 18.6C20.0003 18.3613 19.9055 18.1324 19.7367 17.9636C19.5679 17.7948 19.339 17.7 19.1003 17.7C18.8616 17.7 18.6327 17.7948 18.4639 17.9636C18.2951 18.1324 18.2003 18.3613 18.2003 18.6C18.2003 18.8387 18.2951 19.0676 18.4639 19.2364C18.6327 19.4052 18.8616 19.5 19.1003 19.5ZM19.1003 30.3C19.339 30.3 19.5679 30.2052 19.7367 30.0364C19.9055 29.8676 20.0003 29.6387 20.0003 29.4C20.0003 29.1613 19.9055 28.9324 19.7367 28.7636C19.5679 28.5948 19.339 28.5 19.1003 28.5C18.8616 28.5 18.6327 28.5948 18.4639 28.7636C18.2951 28.9324 18.2003 29.1613 18.2003 29.4C18.2003 29.6387 18.2951 29.8676 18.4639 30.0364C18.6327 30.2052 18.8616 30.3 19.1003 30.3ZM29.9003 30.3C30.139 30.3 30.3679 30.2052 30.5367 30.0364C30.7055 29.8676 30.8003 29.6387 30.8003 29.4C30.8003 29.1613 30.7055 28.9324 30.5367 28.7636C30.3679 28.5948 30.139 28.5 29.9003 28.5C29.6616 28.5 29.4327 28.5948 29.2639 28.7636C29.0951 28.9324 29.0003 29.1613 29.0003 29.4C29.0003 29.6387 29.0951 29.8676 29.2639 30.0364C29.4327 30.2052 29.6616 30.3 29.9003 30.3Z" fill="#38C793"/>
</svg>
