<svg width="25" height="24" viewBox="0 0 25 24" fill="none" xmlns="http://www.w3.org/2000/svg">
<path d="M15.2003 5.7H17.0003C17.4777 5.7 17.9355 5.88964 18.2731 6.22721C18.6107 6.56477 18.8003 7.02261 18.8003 7.5V14.853C19.4011 15.0653 19.9074 15.4832 20.2298 16.0327C20.5523 16.5823 20.6701 17.2281 20.5623 17.8561C20.4546 18.4841 20.1284 19.0538 19.6413 19.4645C19.1541 19.8752 18.5375 20.1004 17.9003 20.1004C17.2632 20.1004 16.6465 19.8752 16.1594 19.4645C15.6723 19.0538 15.346 18.4841 15.2383 17.8561C15.1306 17.2281 15.2484 16.5823 15.5708 16.0327C15.8932 15.4832 16.3996 15.0653 17.0003 14.853V7.5H15.2003V10.2L11.1503 6.6L15.2003 3V5.7ZM6.20032 9.147C5.59958 8.93468 5.09324 8.51682 4.7708 7.96727C4.44836 7.41773 4.33058 6.77188 4.43829 6.14389C4.546 5.5159 4.87225 4.94621 5.35938 4.53551C5.84652 4.12482 6.46316 3.89956 7.10032 3.89956C7.73748 3.89956 8.35412 4.12482 8.84125 4.53551C9.32839 4.94621 9.65464 5.5159 9.76235 6.14389C9.87006 6.77188 9.75228 7.41773 9.42984 7.96727C9.1074 8.51682 8.60106 8.93468 8.00032 9.147V14.853C8.60106 15.0653 9.1074 15.4832 9.42984 16.0327C9.75228 16.5823 9.87006 17.2281 9.76235 17.8561C9.65464 18.4841 9.32839 19.0538 8.84125 19.4645C8.35412 19.8752 7.73748 20.1004 7.10032 20.1004C6.46316 20.1004 5.84652 19.8752 5.35938 19.4645C4.87225 19.0538 4.546 18.4841 4.43829 17.8561C4.33058 17.2281 4.44836 16.5823 4.7708 16.0327C5.09324 15.4832 5.59958 15.0653 6.20032 14.853V9.147ZM7.10032 7.5C7.33901 7.5 7.56793 7.40518 7.73672 7.2364C7.9055 7.06761 8.00032 6.83869 8.00032 6.6C8.00032 6.3613 7.9055 6.13239 7.73672 5.9636C7.56793 5.79482 7.33901 5.7 7.10032 5.7C6.86162 5.7 6.63271 5.79482 6.46392 5.9636C6.29514 6.13239 6.20032 6.3613 6.20032 6.6C6.20032 6.83869 6.29514 7.06761 6.46392 7.2364C6.63271 7.40518 6.86162 7.5 7.10032 7.5ZM7.10032 18.3C7.33901 18.3 7.56793 18.2052 7.73672 18.0364C7.9055 17.8676 8.00032 17.6387 8.00032 17.4C8.00032 17.1613 7.9055 16.9324 7.73672 16.7636C7.56793 16.5948 7.33901 16.5 7.10032 16.5C6.86162 16.5 6.63271 16.5948 6.46392 16.7636C6.29514 16.9324 6.20032 17.1613 6.20032 17.4C6.20032 17.6387 6.29514 17.8676 6.46392 18.0364C6.63271 18.2052 6.86162 18.3 7.10032 18.3ZM17.9003 18.3C18.139 18.3 18.3679 18.2052 18.5367 18.0364C18.7055 17.8676 18.8003 17.6387 18.8003 17.4C18.8003 17.1613 18.7055 16.9324 18.5367 16.7636C18.3679 16.5948 18.139 16.5 17.9003 16.5C17.6616 16.5 17.4327 16.5948 17.2639 16.7636C17.0951 16.9324 17.0003 17.1613 17.0003 17.4C17.0003 17.6387 17.0951 17.8676 17.2639 18.0364C17.4327 18.2052 17.6616 18.3 17.9003 18.3Z" fill="#375DFB"/>
</svg>
