<svg width="22" height="21" viewBox="0 0 22 21" fill="none" xmlns="http://www.w3.org/2000/svg">
<path d="M10.6221 0.5C4.82082 0.5 0.12207 5.19875 0.12207 11C0.12207 15.6462 3.12769 19.5706 7.30145 20.9619C7.82645 21.0537 8.02332 20.7387 8.02332 20.4631C8.02332 20.2137 8.0102 19.3869 8.0102 18.5075C5.37207 18.9931 4.68957 17.8644 4.47957 17.2737C4.36145 16.9719 3.84957 16.04 3.40332 15.7906C3.03582 15.5937 2.51082 15.1081 3.3902 15.095C4.21707 15.0819 4.8077 15.8562 5.00457 16.1712C5.94957 17.7594 7.45895 17.3131 8.0627 17.0375C8.15457 16.355 8.43019 15.8956 8.73207 15.6331C6.39582 15.3706 3.95457 14.465 3.95457 10.4487C3.95457 9.30687 4.36145 8.36187 5.03082 7.62687C4.92582 7.36437 4.55832 6.28812 5.13582 4.84437C5.13582 4.84437 6.0152 4.56875 8.02332 5.92062C8.86332 5.68437 9.75582 5.56625 10.6483 5.56625C11.5408 5.56625 12.4333 5.68437 13.2733 5.92062C15.2814 4.55562 16.1608 4.84437 16.1608 4.84437C16.7383 6.28812 16.3708 7.36437 16.2658 7.62687C16.9352 8.36187 17.3421 9.29375 17.3421 10.4487C17.3421 14.4781 14.8877 15.3706 12.5514 15.6331C12.9321 15.9612 13.2602 16.5912 13.2602 17.5756C13.2602 18.98 13.2471 20.1087 13.2471 20.4631C13.2471 20.7387 13.4439 21.0669 13.9689 20.9619C16.0534 20.2582 17.8647 18.9185 19.1479 17.1315C20.431 15.3445 21.1215 13.2 21.1221 11C21.1221 5.19875 16.4233 0.5 10.6221 0.5Z" fill="white"/>
</svg>
